<?xml version="1.0" encoding="UTF-8" standalone="no"?>
<!-- Created with Inkscape (http://www.inkscape.org/) -->

<svg
   width="50.928749mm"
   height="26.635996mm"
   viewBox="0 0 50.928749 26.635996"
   version="1.1"
   id="svg1"
   xml:space="preserve"
   sodipodi:docname="logo-dark.svg"
   inkscape:version="1.4 (86a8ad7, 2024-10-11)"
   xmlns:inkscape="http://www.inkscape.org/namespaces/inkscape"
   xmlns:sodipodi="http://sodipodi.sourceforge.net/DTD/sodipodi-0.dtd"
   xmlns="http://www.w3.org/2000/svg"
   xmlns:svg="http://www.w3.org/2000/svg"><sodipodi:namedview
     id="namedview1"
     pagecolor="#ffffff"
     bordercolor="#000000"
     borderopacity="0.25"
     inkscape:showpageshadow="2"
     inkscape:pageopacity="0.0"
     inkscape:pagecheckerboard="0"
     inkscape:deskcolor="#d1d1d1"
     inkscape:document-units="mm"
     showgrid="false"
     inkscape:zoom="4.3302367"
     inkscape:cx="86.369413"
     inkscape:cy="19.744879"
     inkscape:window-width="2560"
     inkscape:window-height="1351"
     inkscape:window-x="-9"
     inkscape:window-y="-9"
     inkscape:window-maximized="1"
     inkscape:current-layer="layer1"><inkscape:grid
       id="grid1"
       units="mm"
       originx="-104.53833"
       originy="-74.682007"
       spacingx="0.99999998"
       spacingy="1"
       empcolor="#0099e5"
       empopacity="0.30196078"
       color="#0099e5"
       opacity="0.14902"
       empspacing="5"
       enabled="true"
       visible="false" /><inkscape:page
       x="-5.0754567e-13"
       y="0"
       width="50.928753"
       height="26.635996"
       id="page2"
       margin="0"
       bleed="0" /></sodipodi:namedview><defs
     id="defs1"><style
       id="style1">.cls-1{fill:#1a1a1a}.cls-2{fill:#4d64ae}.cls-3{fill:#ca3c32}.cls-4{fill:#9259a3}.cls-5{fill:#399746}</style></defs><g
     inkscape:label="Ebene 1"
     inkscape:groupmode="layer"
     id="layer1"
     transform="translate(-104.53833,-74.682005)"><g
       id="g1"><g
         id="g10"><path
           style="fill:none;stroke:#cb3c33;stroke-width:0.705556;stroke-dasharray:none;stroke-opacity:1"
           d="m 105,74.999997 c 0,0 18.73704,9.000002 25,9.000001 6.26296,-1e-6 25,-9.000001 25,-9.000001"
           id="path3"
           sodipodi:nodetypes="czc" /><path
           style="fill:none;stroke:#cb3c33;stroke-width:0.705556;stroke-dasharray:none;stroke-opacity:1"
           d="m 105,101 c 0,0 18.73704,-9.000004 25,-9.000003 6.26296,1e-6 25,9.000003 25,9.000003"
           id="path3-5"
           sodipodi:nodetypes="czc" /><path
           style="fill:none;stroke:#399726;stroke-width:0.705556;stroke-dasharray:none;stroke-opacity:1"
           d="m 105,84.706114 h 50"
           id="path4" /><path
           style="fill:none;stroke:#399726;stroke-width:0.705556;stroke-dasharray:none;stroke-opacity:1"
           d="m 105,91.297564 h 50"
           id="path4-1" /><path
           style="fill:#4d64ae;fill-opacity:1;stroke:#4063d8;stroke-width:0.705556;stroke-dasharray:none;stroke-opacity:1"
           d="m 105,87.999998 h 50"
           id="path6" /><path
           style="fill:none;stroke:#9458b2;stroke-width:0.705556;stroke-dasharray:none;stroke-opacity:1"
           d="m 104.69325,75.636408 50.60928,24.735712"
           id="path5-2"
           sodipodi:nodetypes="cc" /><path
           style="fill:none;stroke:#9458b2;stroke-width:0.705556;stroke-dasharray:none;stroke-opacity:1"
           d="M 104.69325,100.37036 155.31221,75.635438"
           id="path5"
           sodipodi:nodetypes="cc" /></g><g
         id="text6"
         style="font-size:3.52777px;font-family:'CMU Sans Serif';-inkscape-font-specification:'CMU Sans Serif';stroke-width:0.705556"
         aria-label="BeaMletOptics.jl"><path
           style="font-weight:bold;-inkscape-font-specification:'CMU Sans Serif Bold';fill:#ffffff"
           d="m 118.14248,77.838081 v -2.123897 q 0,-0.04995 0.009,-0.07924 0.0103,-0.03101 0.0482,-0.05684 0.0396,-0.02584 0.11024,-0.02584 h 0.75103 q 0.1757,0 0.28422,0.0069 0.11024,0.0069 0.28077,0.05512 0.17226,0.04651 0.27389,0.141248 0.18259,0.16881 0.18431,0.430636 0,0.06718 -0.0155,0.129191 -0.0138,0.06201 -0.0413,0.10852 -0.0276,0.04479 -0.0586,0.08441 -0.0293,0.0379 -0.0758,0.0689 -0.0448,0.02928 -0.0792,0.05168 -0.0327,0.02067 -0.081,0.0379 -0.0482,0.01722 -0.0706,0.02412 -0.0224,0.0069 -0.062,0.01722 l -0.0379,0.01206 q 0.28594,0.03445 0.45647,0.187757 0.17054,0.153307 0.17054,0.415133 0,0.394463 -0.33762,0.56844 Q 119.63593,78 119.17256,78 h -0.86299 q -0.0947,0 -0.13091,-0.03962 -0.0362,-0.04134 -0.0362,-0.1223 z m 0.48404,-0.141249 h 0.47542 q 0.39791,0 0.53743,-0.158474 0.081,-0.09474 0.081,-0.232543 0,-0.07751 -0.0241,-0.144694 -0.0224,-0.06718 -0.0792,-0.137803 -0.0551,-0.07063 -0.17398,-0.113688 -0.11885,-0.04479 -0.28766,-0.0534 h -0.52882 z m 0,-1.09726 h 0.33073 q 0.21531,0 0.33245,-0.02412 0.11713,-0.02584 0.2291,-0.117133 0.10163,-0.124023 0.10163,-0.261827 0,-0.204982 -0.2136,-0.287664 -0.14125,-0.0534 -0.40996,-0.0534 h -0.37035 z"
           id="path1" /><path
           style="fill:#ffffff"
           d="m 120.52821,77.202462 q 0,-0.349676 0.21187,-0.58911 0.21359,-0.239434 0.49954,-0.239434 0.10507,0 0.19981,0.03445 0.0965,0.03273 0.19293,0.110243 0.0982,0.07751 0.16192,0.232544 0.0637,0.155029 0.0741,0.370347 v 0.10163 h -1.09382 q 0.0103,0.265271 0.16192,0.432358 0.15158,0.165364 0.36001,0.165364 0.26872,0 0.53571,-0.194647 l 0.0224,0.232543 q -0.26872,0.179145 -0.55811,0.180868 -0.33589,0 -0.55294,-0.248047 -0.21531,-0.249769 -0.21531,-0.58911 z m 0.26355,-0.172254 h 0.87505 q -0.0207,-0.137804 -0.0758,-0.232544 -0.0551,-0.09646 -0.12403,-0.136081 -0.0689,-0.04134 -0.12402,-0.05512 -0.0534,-0.01378 -0.10335,-0.01378 -0.17915,0 -0.29628,0.137803 -0.11713,0.137804 -0.15158,0.299723 z m 1.33669,0.571884 q 0,-0.130913 0.0982,-0.227375 0.0999,-0.09819 0.2601,-0.144694 0.1602,-0.04823 0.3135,-0.07062 0.15331,-0.02412 0.30834,-0.02412 v -0.118856 q -0.007,-0.225653 -0.0913,-0.32556 -0.0879,-0.105076 -0.22221,-0.105076 -0.27216,0 -0.52882,0.179145 l -0.0207,-0.235989 q 0.26527,-0.155029 0.55294,-0.155029 0.24288,0 0.40652,0.160197 0.16536,0.160197 0.17914,0.389295 V 78 h -0.26699 v -0.124023 q -0.0138,0.01378 -0.0655,0.04651 -0.0517,0.031 -0.19981,0.07407 -0.14814,0.04306 -0.32039,0.04306 -0.20154,0 -0.30317,-0.142972 -0.0999,-0.142971 -0.0999,-0.294555 z m 0.25838,-0.0034 q 0,0.09474 0.093,0.158474 0.093,0.06373 0.23427,0.06373 0.15158,0 0.27216,-0.06373 0.1223,-0.06373 0.1223,-0.215318 v -0.222208 q -0.10852,0 -0.22221,0.01378 -0.11197,0.01378 -0.23254,0.04306 -0.11886,0.02756 -0.19293,0.08613 -0.0741,0.05857 -0.0741,0.136081 z"
           id="path2" /><path
           style="font-weight:bold;-inkscape-font-specification:'CMU Sans Serif Bold';fill:#ffffff"
           d="m 123.98707,77.805353 v -2.098059 q 0,-0.155029 0.1602,-0.155029 h 0.28767 q 0.14469,0 0.20842,0.09819 0.0276,0.04651 0.36002,0.862995 0.33245,0.816485 0.37723,0.964624 0.0344,-0.127468 0.69591,-1.743214 0.0276,-0.06373 0.0431,-0.0913 0.0172,-0.02756 0.0672,-0.05857 0.0517,-0.03273 0.13264,-0.03273 h 0.3135 q 0.15848,0 0.1602,0.161919 v 2.117007 q 0,0.08096 -0.0327,0.125745 Q 126.72936,78 126.62946,78 h -0.11197 q -0.0603,0 -0.0965,-0.0155 -0.0345,-0.0155 -0.0465,-0.04995 -0.0121,-0.03617 -0.0138,-0.05512 -0.002,-0.02067 -0.002,-0.06201 v -1.725989 q 0,-0.01722 -0.002,-0.04823 -0.002,-0.03273 -0.002,-0.04995 -0.0345,0.161919 -0.68901,1.741492 -0.05,0.120578 -0.10336,0.155029 -0.0517,0.03273 -0.14297,0.03273 h -0.0706 q -0.0465,0 -0.0792,-0.0052 -0.031,-0.0052 -0.0586,-0.02412 -0.0276,-0.02067 -0.0448,-0.03445 -0.0155,-0.01378 -0.0379,-0.06201 -0.0224,-0.04995 -0.0379,-0.08096 -0.0138,-0.03273 -0.0465,-0.11541 -0.031,-0.08441 -0.0551,-0.139526 l -0.36691,-0.907781 q -0.1757,-0.461642 -0.20153,-0.559827 v 1.844845 Q 124.42116,78 124.26268,78 h -0.11541 q -0.0603,0 -0.0965,-0.0155 -0.0344,-0.0155 -0.0482,-0.04995 -0.0121,-0.03617 -0.0138,-0.05684 -0.002,-0.02239 -0.002,-0.07235 z"
           id="path7" /><path
           style="fill:#ffffff"
           d="m 127.40116,78 v -2.547643 h 0.26355 V 78 Z m 0.67696,-0.797538 q 0,-0.349676 0.21187,-0.58911 0.2136,-0.239434 0.49954,-0.239434 0.10507,0 0.19981,0.03445 0.0965,0.03273 0.19293,0.110243 0.0982,0.07751 0.16192,0.232544 0.0637,0.155029 0.0741,0.370347 v 0.10163 h -1.09382 q 0.0103,0.265271 0.16192,0.432358 0.15158,0.165364 0.36001,0.165364 0.26872,0 0.53571,-0.194647 l 0.0224,0.232543 q -0.26872,0.179145 -0.55811,0.180868 -0.33589,0 -0.55294,-0.248047 -0.21531,-0.249769 -0.21531,-0.58911 z m 0.26355,-0.172254 h 0.87505 q -0.0207,-0.137804 -0.0758,-0.232544 -0.0551,-0.09646 -0.12403,-0.136081 -0.0689,-0.04134 -0.12402,-0.05512 -0.0534,-0.01378 -0.10335,-0.01378 -0.17915,0 -0.29628,0.137803 -0.11713,0.137804 -0.15158,0.299723 z m 1.24539,-0.39274 v -0.206706 h 0.30317 v -0.444416 h 0.24633 v 0.444416 h 0.49781 v 0.206706 h -0.49781 v 0.868162 q 0,0.306613 0.1912,0.306613 0.14814,0 0.31006,-0.115411 l 0.0568,0.208428 q -0.24977,0.134359 -0.52193,0.134359 -0.28939,0 -0.28939,-0.45303 v -0.949121 z"
           id="path8" /><path
           style="font-weight:bold;-inkscape-font-specification:'CMU Sans Serif Bold';fill:#ffffff"
           d="m 131.00816,76.790774 q 0,-1.319469 1.18167,-1.319469 1.18855,0 1.18855,1.319469 0,1.28674 -1.17822,1.28674 -0.002,0 -0.003,0 -0.002,0 -0.003,0 -1.18511,0 -1.18511,-1.28674 z m 0.50126,-0.0086 q 0,0.08785 0.002,0.151584 0.002,0.06373 0.0155,0.177422 0.0138,0.111966 0.0379,0.19637 0.0258,0.08268 0.0758,0.179145 0.0517,0.09646 0.1223,0.158474 0.0706,0.06201 0.18087,0.105075 0.11196,0.04134 0.25321,0.04134 0.27905,0 0.45131,-0.172254 0.081,-0.08096 0.13091,-0.192925 0.0499,-0.113688 0.0689,-0.253214 0.019,-0.139526 0.0241,-0.230821 0.005,-0.09302 0.005,-0.234266 v -0.02412 q 0,-0.0844 -0.002,-0.144693 -0.002,-0.06029 -0.0155,-0.167087 -0.0138,-0.10852 -0.0396,-0.18259 -0.0241,-0.07407 -0.0758,-0.163641 -0.05,-0.08957 -0.12058,-0.146417 -0.0706,-0.05684 -0.18259,-0.09474 -0.11024,-0.03962 -0.24805,-0.03962 -0.28594,0 -0.46164,0.170532 -0.10163,0.09819 -0.15503,0.263549 -0.0534,0.165364 -0.0603,0.27733 -0.007,0.111965 -0.007,0.298 z"
           id="path9" /><path
           style="fill:#ffffff"
           d="m 133.88309,78.687295 v -2.256533 h 0.26355 v 0.172255 q 0.25838,-0.208428 0.58566,-0.208428 0.24288,0 0.39963,0.244601 0.15848,0.242879 0.15848,0.570162 0,0.363457 -0.19637,0.597723 -0.19465,0.232544 -0.45992,0.232544 -0.26183,0 -0.47542,-0.201538 v 0.849214 z m 0.27561,-1.131711 q 0,0.07751 0.0999,0.173977 0.0999,0.09474 0.24116,0.09474 0.19809,0 0.35485,-0.16881 0.15675,-0.170532 0.15675,-0.439249 0,-0.239433 -0.13436,-0.416855 -0.13264,-0.179145 -0.34451,-0.179145 -0.0396,0 -0.0758,0.0052 -0.0345,0.0052 -0.0655,0.01895 -0.0293,0.01206 -0.0551,0.02412 -0.0258,0.01206 -0.0499,0.02756 -0.0224,0.0155 -0.0396,0.03101 -0.0172,0.01378 -0.0345,0.03101 -0.0155,0.01723 -0.0241,0.02928 -0.009,0.01033 -0.019,0.02067 l -0.0103,0.01378 z m 1.32463,-0.918116 v -0.206706 h 0.30317 v -0.444416 h 0.24633 v 0.444416 h 0.49781 v 0.206706 h -0.49781 v 0.868162 q 0,0.306613 0.1912,0.306613 0.14814,0 0.31006,-0.115411 l 0.0568,0.208428 q -0.24977,0.134359 -0.52193,0.134359 -0.28939,0 -0.28939,-0.45303 v -0.949121 z m 1.47105,-0.718301 v -0.315226 h 0.31695 v 0.315226 z M 136.9785,78 v -1.569238 h 0.26355 V 78 Z m 0.68041,-0.787203 q 0,-0.327283 0.21015,-0.582219 0.21187,-0.25666 0.56499,-0.25666 0.16537,0 0.27389,0.03273 0.11024,0.03101 0.27388,0.1223 l -0.0431,0.232544 q -0.17226,-0.10852 -0.26355,-0.134359 -0.10163,-0.02756 -0.2446,-0.02756 -0.23944,0 -0.36863,0.182589 -0.12919,0.180868 -0.12919,0.430636 0,0.261827 0.1378,0.430636 0.13781,0.16881 0.35657,0.16881 0.27561,0 0.55466,-0.18948 l 0.0172,0.235988 q -0.27906,0.179145 -0.57533,0.180868 -0.32384,0 -0.54433,-0.241157 -0.22048,-0.242878 -0.22048,-0.585665 z m 1.53651,0.666625 0.0431,-0.239434 q 0.007,0.0034 0.0448,0.02756 0.0396,0.02239 0.0586,0.03273 0.0207,0.01034 0.0637,0.03273 0.0448,0.02067 0.081,0.03273 0.0379,0.01206 0.0861,0.02584 0.05,0.01378 0.10508,0.02067 0.0551,0.0052 0.11369,0.0052 0.1757,0 0.25149,-0.07407 0.0775,-0.07579 0.0775,-0.167087 0,-0.08785 -0.0637,-0.146416 -0.0637,-0.05857 -0.13436,-0.07924 -0.0344,-0.01033 -0.15675,-0.03445 -0.1223,-0.02584 -0.18087,-0.04306 -0.14469,-0.04651 -0.25666,-0.156751 -0.11024,-0.111965 -0.11024,-0.27733 0,-0.08096 0.0241,-0.153306 0.0241,-0.07235 0.0827,-0.148139 0.0586,-0.07579 0.17914,-0.118855 0.1223,-0.04479 0.29111,-0.04479 0.25321,0 0.51504,0.108521 l -0.0379,0.234266 q -0.003,-0.0034 -0.0413,-0.01895 -0.0362,-0.01723 -0.0413,-0.02067 -0.005,-0.0034 -0.0396,-0.01722 -0.0327,-0.01378 -0.0465,-0.01723 -0.0121,-0.0052 -0.0431,-0.01722 -0.031,-0.01206 -0.0499,-0.01378 -0.0172,-0.0017 -0.0517,-0.01034 -0.0327,-0.0086 -0.0586,-0.01033 -0.0258,-0.0017 -0.062,-0.0034 -0.0344,-0.0017 -0.0741,-0.0017 -0.16192,0 -0.2291,0.06546 -0.0672,0.06546 -0.0672,0.149861 0,0.117133 0.093,0.16881 0.0947,0.04995 0.26355,0.07924 0.16881,0.02928 0.23944,0.06201 0.12747,0.05684 0.21704,0.170532 0.0896,0.111966 0.0896,0.27044 0,0.08096 -0.0241,0.158474 -0.0241,0.07751 -0.0827,0.155029 -0.0586,0.07751 -0.18086,0.125745 -0.12058,0.04823 -0.28767,0.04823 -0.31006,-0.0017 -0.59944,-0.160197 z M 140.79049,78 v -0.296278 h 0.29628 V 78 Z m 0.42547,0.60289 0.0534,-0.215318 q 0.1378,0.108521 0.27561,0.110243 0.10163,0 0.17397,-0.05168 0.0724,-0.05168 0.093,-0.125746 0.007,-0.03101 0.007,-0.0913 v -1.798336 h 0.26527 v 1.744937 q 0,0.292833 -0.1378,0.420301 -0.1378,0.127468 -0.30661,0.127468 -0.21532,0 -0.42375,-0.120578 z m 0.55466,-2.683723 v -0.315226 h 0.31695 v 0.315226 z M 142.65773,78 v -2.547643 h 0.26355 V 78 Z"
           id="path10" /></g></g></g></svg>
